<?xml version="1.0" encoding="UTF-8" standalone="no"?>
<!-- Generator: Adobe Illustrator 16.0.4, SVG Export Plug-In . SVG Version: 6.00 Build 0)  -->

<svg
   xmlns:dc="http://purl.org/dc/elements/1.1/"
   xmlns:cc="http://creativecommons.org/ns#"
   xmlns:rdf="http://www.w3.org/1999/02/22-rdf-syntax-ns#"
   xmlns:svg="http://www.w3.org/2000/svg"
   xmlns="http://www.w3.org/2000/svg"
   xmlns:sodipodi="http://sodipodi.sourceforge.net/DTD/sodipodi-0.dtd"
   xmlns:inkscape="http://www.inkscape.org/namespaces/inkscape"
   version="1.1"
   id="Layer_1"
   x="0px"
   y="0px"
   width="1000"
   height="244.186"
   viewBox="0 0 1000 244.186"
   enable-background="new 0 0 124 33"
   xml:space="preserve"
   inkscape:version="0.91 r13725"
   sodipodi:docname="PayPal 2014 V.svg"><metadata
   id="metadata8657"><rdf:RDF><cc:Work
       rdf:about=""><dc:format>image/svg+xml</dc:format><dc:type
         rdf:resource="http://purl.org/dc/dcmitype/StillImage" /><dc:title></dc:title></cc:Work></rdf:RDF></metadata><defs
   id="defs8655" /><sodipodi:namedview
   pagecolor="#ffffff"
   bordercolor="#666666"
   borderopacity="1"
   objecttolerance="10"
   gridtolerance="10"
   guidetolerance="10"
   inkscape:pageopacity="0"
   inkscape:pageshadow="2"
   inkscape:window-width="1366"
   inkscape:window-height="705"
   id="namedview8653"
   showgrid="false"
   inkscape:zoom="0.70710678"
   inkscape:cx="356.0355"
   inkscape:cy="61.198148"
   inkscape:window-x="-8"
   inkscape:window-y="-8"
   inkscape:window-maximized="1"
   inkscape:current-layer="Layer_1" />
<path
   d="m 373.91716,54.60977 -55.3379,0 c -3.78683,0 -7.00726,2.75112 -7.59794,6.4894 l -22.38115,141.90099 c -0.44503,2.79967 1.7235,5.32422 4.56362,5.32422 l 26.41882,0 c 3.78683,0 7.00725,-2.75111 7.59793,-6.49749 l 6.03628,-38.27289 c 0.58259,-3.74637 3.8111,-6.49749 7.58984,-6.49749 l 17.51815,0 c 36.45229,0 57.49025,-17.63951 62.98439,-52.59488 2.476,-15.29298 0.10519,-27.30888 -7.05581,-35.72406 -7.86495,-9.24052 -21.81474,-14.1278 -40.33623,-14.1278 z m 6.38421,51.82619 c -3.02622,19.85659 -18.19782,19.85659 -32.86775,19.85659 l -8.35045,0 5.85826,-37.08344 c 0.34794,-2.24135 2.2899,-3.89202 4.55553,-3.89202 l 3.82729,0 c 9.99302,0 19.41964,0 24.29074,5.69643 2.90486,3.39844 3.79492,8.44755 2.68638,15.42244 z"
   id="path8633"
   inkscape:connector-curvature="0"
   style="fill:#253b80" />
<path
   d="m 539.33211,105.79673 -26.49973,0 c -2.25753,0 -4.20759,1.65067 -4.55552,3.89202 l -1.17327,7.41183 -1.85296,-2.68638 c -5.73689,-8.32618 -18.52958,-11.10966 -31.298,-11.10966 -29.28321,0 -54.2941,22.17886 -59.1652,53.29075 -2.53264,15.51954 1.06808,30.35939 9.87166,40.70844 8.07534,9.51563 19.63003,13.48047 33.37752,13.48047 23.59487,0 36.67886,-15.1716 36.67886,-15.1716 l -1.18136,7.36329 c -0.44503,2.81585 1.72349,5.3404 4.54743,5.3404 l 23.86999,0 c 3.79492,0 6.99916,-2.75112 7.59794,-6.49749 l 14.32199,-90.69785 c 0.45312,-2.79158 -1.70731,-5.32422 -4.53935,-5.32422 z m -36.93779,51.57535 c -2.55692,15.13923 -14.57282,25.30218 -29.89816,25.30218 -7.69504,0 -13.84459,-2.46791 -17.79326,-7.14481 -3.91629,-4.64453 -5.40513,-11.2553 -4.15904,-18.61859 2.387,-15.00977 14.6052,-25.50447 29.69588,-25.50447 7.52512,0 13.6423,2.50028 17.67188,7.21764 4.03767,4.7659 5.63979,11.41713 4.4827,18.74805 z"
   id="path8635"
   inkscape:connector-curvature="0"
   style="fill:#253b80" />
<path
   d="m 680.46441,105.79673 -26.62919,0 c -2.54074,0 -4.92774,1.26228 -6.36803,3.37416 L 610.73978,163.2708 595.1717,111.28278 c -0.97908,-3.25279 -3.98103,-5.48605 -7.37947,-5.48605 l -26.16798,0 c -3.17997,0 -5.38895,3.10714 -4.37751,6.10101 l 29.33176,86.07759 -27.5759,38.9283 c -2.16853,3.06669 0.0162,7.28237 3.76256,7.28237 l 26.59682,0 c 2.52456,0 4.88728,-1.22991 6.31948,-3.30134 l 88.56978,-127.84602 c 2.11998,-3.0586 -0.0566,-7.24191 -3.78683,-7.24191 z"
   id="path8637"
   inkscape:connector-curvature="0"
   style="fill:#253b80" />
<path
   d="m 768.62962,54.60977 -55.346,0 c -3.77874,0 -6.99917,2.75112 -7.58985,6.4894 l -22.38114,141.90099 c -0.44504,2.79967 1.72349,5.32422 4.54743,5.32422 l 28.40124,0 c 2.63783,0 4.89537,-1.92578 5.30803,-4.54743 l 6.35185,-40.22295 c 0.58259,-3.74637 3.8111,-6.49749 7.58984,-6.49749 l 17.51005,0 c 36.46039,0 57.49025,-17.63951 62.99249,-52.59488 2.4841,-15.29298 0.0971,-27.30888 -7.0639,-35.72406 -7.85686,-9.24052 -21.79855,-14.1278 -40.32004,-14.1278 z m 6.38421,51.82619 c -3.01814,19.85659 -18.18974,19.85659 -32.86776,19.85659 l -8.34236,0 5.86635,-37.08344 c 0.34794,-2.24135 2.27372,-3.89202 4.54744,-3.89202 l 3.82729,0 c 9.98493,0 19.41965,0 24.29074,5.69643 2.90486,3.39844 3.78683,8.44755 2.6783,15.42244 z"
   id="path8639"
   inkscape:connector-curvature="0"
   style="fill:#179bd7" />
<path
   d="m 934.03647,105.79673 -26.48354,0 c -2.27372,0 -4.20759,1.65067 -4.54744,3.89202 l -1.17327,7.41183 -1.86105,-2.68638 c -5.73688,-8.32618 -18.52149,-11.10966 -31.28991,-11.10966 -29.28321,0 -54.28601,22.17886 -59.1571,53.29075 -2.52456,15.51954 1.05999,30.35939 9.86356,40.70844 8.09152,9.51563 19.63003,13.48047 33.37752,13.48047 23.59488,0 36.67887,-15.1716 36.67887,-15.1716 l -1.18137,7.36329 c -0.44503,2.81585 1.7235,5.3404 4.56362,5.3404 l 23.86189,0 c 3.77874,0 6.99917,-2.75112 7.58985,-6.49749 l 14.33008,-90.69785 c 0.43694,-2.79158 -1.73158,-5.32422 -4.57171,-5.32422 z m -36.93779,51.57535 c -2.54073,15.13923 -14.57282,25.30218 -29.89816,25.30218 -7.67886,0 -13.8446,-2.46791 -17.79326,-7.14481 -3.91629,-4.64453 -5.38895,-11.2553 -4.15904,-18.61859 2.40318,-15.00977 14.6052,-25.50447 29.69588,-25.50447 7.52511,0 13.6423,2.50028 17.67188,7.21764 4.05385,4.7659 5.65597,11.41713 4.4827,18.74805 z"
   id="path8641"
   inkscape:connector-curvature="0"
   style="fill:#179bd7" />
<path
   d="m 965.27783,58.50179 -22.71289,144.49837 c -0.44504,2.79967 1.72349,5.32422 4.54743,5.32422 l 22.83427,0 c 3.79492,0 7.01535,-2.75111 7.59794,-6.49749 l 22.39733,-141.8929 c 0.44499,-2.79966 -1.7235,-5.33231 -4.54744,-5.33231 l -25.5692,0 c -2.25754,0.008 -4.1995,1.65876 -4.54744,3.90011 z"
   id="path8643"
   inkscape:connector-curvature="0"
   style="fill:#179bd7" />
<path
   d="m 58.792907,235.90028 4.231865,-26.88003 -9.426621,-0.21847 -45.0131272,0 L 39.866841,10.45435 c 0.0971,-0.59878 0.412668,-1.15709 0.873884,-1.55358 0.461217,-0.39648 1.051898,-0.61495 1.666854,-0.61495 l 75.898461,0 c 25.19699,0 42.58567,5.2433 51.66436,15.59236 4.25614,4.85491 6.96679,9.92829 8.27762,15.51144 1.37556,5.85826 1.39983,12.85743 0.0566,21.39398 l -0.0971,0.62305 0,5.46987 4.25614,2.41127 c 3.58455,1.90151 6.43276,4.07813 8.61747,6.57031 3.64119,4.15095 5.99582,9.42662 6.99108,15.68137 1.02762,6.43276 0.68778,14.08734 -0.99526,22.75336 -1.94197,9.96875 -5.08148,18.65095 -9.32143,25.7553 -3.90012,6.54604 -8.86831,11.97545 -14.76703,16.18304 -5.6317,3.99722 -12.32338,7.03154 -19.88895,8.9735 -7.33092,1.9096 -15.68946,2.87249 -24.85715,2.87249 l -5.90681,0 c -4.22378,0 -8.32618,1.52121 -11.5466,4.24805 -3.22852,2.78348 -5.36468,6.5865 -6.02009,10.74554 l -0.44504,2.41936 -7.476563,47.37585 -0.339844,1.73968 c -0.08901,0.55022 -0.242745,0.82533 -0.469308,1.01144 -0.202288,0.16992 -0.493583,0.2832 -0.776786,0.2832 l -36.468482,0 z"
   id="path8645"
   inkscape:connector-curvature="0"
   style="fill:#253b80" />
<path
   d="m 186.49328,62.03779 0,0 0,0 c -0.22656,1.44838 -0.48549,2.92913 -0.77679,4.45033 -10.00921,51.38925 -44.25252,69.14204 -87.987187,69.14204 l -22.267864,0 c -5.348495,0 -9.855472,3.88393 -10.688898,9.1596 l 0,0 0,0 -11.400952,72.30583 -3.228517,20.49582 c -0.542132,3.46317 2.12807,6.5865 5.623607,6.5865 l 39.49471,0 c 4.676899,0 8.649831,-3.39844 9.386161,-8.01061 l 0.3884,-2.00669 7.4361,-47.18975 0.4774,-2.58929 c 0.72824,-4.62835 4.70927,-8.02679 9.38617,-8.02679 l 5.90681,0 c 38.2648,0 68.2196,-15.53571 76.97463,-60.4922 3.65737,-18.78042 1.76395,-34.46179 -7.91351,-45.49053 -2.92913,-3.32561 -6.56222,-6.08482 -10.81027,-8.33426 z"
   id="path8647"
   inkscape:connector-curvature="0"
   style="fill:#179bd7" />
<path
   d="m 176.02285,57.86256 c -1.52929,-0.44503 -3.10714,-0.84961 -4.72544,-1.21373 -1.6264,-0.35602 -3.29325,-0.67159 -5.00866,-0.9467 -6.0039,-0.97099 -12.58231,-1.4322 -19.63002,-1.4322 l -59.488861,0 c -1.464565,0 -2.856307,0.33175 -4.102401,0.93052 -2.743025,1.31892 -4.782088,3.9163 -5.275671,7.09627 l -12.655138,80.1546 -0.364118,2.33845 c 0.833426,-5.27568 5.340403,-9.15961 10.688898,-9.15961 l 22.267864,0 c 43.734667,0 77.977977,-17.76088 87.987187,-69.14204 0.29939,-1.5212 0.55023,-3.00195 0.77679,-4.45033 -2.53265,-1.3432 -5.27567,-2.49219 -8.22908,-3.47127 -0.72823,-0.24274 -1.48074,-0.4774 -2.24135,-0.70396 z"
   id="path8649"
   inkscape:connector-curvature="0"
   style="fill:#222d65" />
<path
   d="m 77.791797,62.29672 c 0.493583,-3.17997 2.532646,-5.77735 5.275671,-7.08818 1.254186,-0.59877 2.637836,-0.93052 4.102401,-0.93052 l 59.488861,0 c 7.04771,0 13.62612,0.46122 19.63002,1.4322 1.71541,0.27511 3.38226,0.59068 5.00866,0.94671 1.6183,0.36411 3.19615,0.76869 4.72544,1.21372 0.76061,0.22657 1.51312,0.46122 2.24945,0.69587 2.9534,0.97908 5.69643,2.13617 8.22907,3.47127 2.97768,-18.9908 -0.0243,-31.92105 -10.29241,-43.62948 C 164.88892,5.51852 144.45783,1e-4 118.31413,1e-4 l -75.89846,0 c -5.340403,0 -9.895929,3.88393 -10.721264,9.16769 L 0.08083595,209.55429 c -0.62304707,3.96485 2.43554765,7.5413 6.43275865,7.5413 l 46.8579944,0 11.76507,-74.64427 12.655138,-80.1546 z"
   id="path8651"
   inkscape:connector-curvature="0"
   style="fill:#253b80" />
</svg>